<?xml version="1.0" encoding="UTF-8" standalone="no"?>
<!-- Created with Inkscape (http://www.inkscape.org/) -->

<svg
   xmlns:dc="http://purl.org/dc/elements/1.1/"
   xmlns:cc="http://creativecommons.org/ns#"
   xmlns:rdf="http://www.w3.org/1999/02/22-rdf-syntax-ns#"
   xmlns:svg="http://www.w3.org/2000/svg"
   xmlns="http://www.w3.org/2000/svg"
   xmlns:sodipodi="http://sodipodi.sourceforge.net/DTD/sodipodi-0.dtd"
   xmlns:inkscape="http://www.inkscape.org/namespaces/inkscape"
   width="1980"
   height="2040"
   viewBox="0 0 523.87499 539.75002"
   version="1.1"
   id="svg8"
   inkscape:version="0.92.2 (5c3e80d, 2017-08-06)"
   sodipodi:docname="blog-bg.svg">
  <defs
     id="defs2" />
  <sodipodi:namedview
     id="base"
     pagecolor="#ffffff"
     bordercolor="#666666"
     borderopacity="1.0"
     inkscape:pageopacity="0.0"
     inkscape:pageshadow="2"
     inkscape:zoom="0.24748737"
     inkscape:cx="755.72436"
     inkscape:cy="800.49197"
     inkscape:document-units="mm"
     inkscape:current-layer="layer1"
     showgrid="false"
     units="px"
     inkscape:showpageshadow="false"
     inkscape:snap-page="false"
     inkscape:window-width="1920"
     inkscape:window-height="1017"
     inkscape:window-x="-8"
     inkscape:window-y="-8"
     inkscape:window-maximized="1"
     inkscape:snap-to-guides="false"
     inkscape:snap-grids="false"
     inkscape:snap-others="false"
     inkscape:snap-global="false" />
  <metadata
     id="metadata5">
    <rdf:RDF>
      <cc:Work
         rdf:about="">
        <dc:format>image/svg+xml</dc:format>
        <dc:type
           rdf:resource="http://purl.org/dc/dcmitype/StillImage" />
        <dc:title />
      </cc:Work>
    </rdf:RDF>
  </metadata>
  <g
     inkscape:label="Capa 1"
     inkscape:groupmode="layer"
     id="layer1"
     transform="translate(0,242.75002)">
    <rect
       style="opacity:1;fill:#15202b;fill-opacity:1;fill-rule:nonzero;stroke:none;stroke-width:0.52916664;stroke-linecap:square;stroke-linejoin:miter;stroke-miterlimit:4;stroke-dasharray:none;stroke-opacity:1;paint-order:markers fill stroke"
       id="rect819"
       width="523.875"
       height="539.75"
       x="0"
       y="-242.75002" />
    <path
       style="fill:#444b53;stroke:none;stroke-width:0.26458332px;stroke-linecap:butt;stroke-linejoin:miter;stroke-opacity:1;fill-opacity:1"
       d="m 0,-107.11155 v -135.63847 h 408.38784 c 0,0 -53.98844,43.16322 -143.79101,50.11222 -89.80256,6.94901 -110.11505,41.1595 -110.11505,41.1595 0,0 -55.592056,80.180868 -154.48178,44.36675 z"
       id="path821"
       inkscape:connector-curvature="0"
       sodipodi:nodetypes="cccscc" />
    <path
       style="fill:#444b53;fill-opacity:1;stroke:none;stroke-width:0.26458332px;stroke-linecap:butt;stroke-linejoin:miter;stroke-opacity:1"
       d="M 523.875,-14.868404 V -189.98425 c 0,0 -52.62127,-13.49707 -53.6595,16.95785 -1.03824,30.45493 -31.49318,-1.38431 -48.45103,16.26571 -16.95787,17.65001 -35.99218,16.95785 -48.45102,7.26765 -12.45884,-9.6902 -42.56769,2.76863 -40.49122,19.72649 2.07648,16.95785 -6.22942,27.34022 -20.76472,28.37845 -14.53531,1.03824 -38.76082,25.955912 -19.03433,40.491217 19.72649,14.535305 36.68434,-13.497072 61.60201,-4.845108 24.91768,8.651982 32.18533,22.49513 27.34023,41.529444 -4.84512,19.0343394 4.15295,40.145141 25.60982,42.913783 21.45688,2.768622 37.03042,-11.0745266 40.49122,-19.38041858 3.46078,-8.30588502 17.30393,-37.72258542 40.49121,-28.37844942 23.18727,9.344117 35.31733,14.189228 35.31733,14.189228 z"
       id="path823"
       inkscape:connector-curvature="0" />
    <path
       style="fill:#444b53;stroke:none;stroke-width:0.26458332px;stroke-linecap:butt;stroke-linejoin:miter;stroke-opacity:1;fill-opacity:1"
       d="M 523.87499,55.851159 V 296.99997 H 247.19642 c 0,0 13.60715,-65.0119 83.91073,-71.81548 70.30357,-6.80357 96.00594,9.07143 106.58927,-46.86903 10.58333,-55.94048 17.38691,-86.178576 86.17857,-122.464301 z"
       id="path825"
       inkscape:connector-curvature="0" />
    <path
       style="fill:#444b53;stroke:none;stroke-width:0.26458332px;stroke-linecap:butt;stroke-linejoin:miter;stroke-opacity:1;fill-opacity:1"
       d="M 0,7.2798087 V 296.99997 h 149.67093 c 0,0 91.94072,-47.03942 91.94072,-110.11503 0,-63.07561 36.34864,-62.00653 49.1776,-48.10852 12.82893,13.898 69.49006,16.03615 66.28283,-37.41775 C 353.86486,47.904769 302.54911,31.868612 280.09847,45.766618 257.64782,59.664625 225.57548,83.184363 211.67746,57.526474 197.77945,31.868612 251.23335,14.763355 258.7169,-1.2728157 266.20044,-17.308986 269.40769,-60.072111 213.81562,-54.726721 158.22356,-49.381331 149.67093,-11.963596 141.11831,14.763355 132.56568,41.490317 79.111778,51.112022 56.661139,24.385057 34.2105,-2.3418938 0,7.2798087 0,7.2798087 Z"
       id="path827"
       inkscape:connector-curvature="0" />
    <path
       style="fill:#15202b;stroke:none;stroke-width:0.26458332px;stroke-linecap:butt;stroke-linejoin:miter;stroke-opacity:1;fill-opacity:1"
       d="M 44.901281,296.99997 H 0 v -90.87164 c 0,0 78.0427,9.6217 44.901281,90.87164 z"
       id="path829"
       inkscape:connector-curvature="0" />
    <g
       id="g827" />
    <path
       id="path837"
       style="fill:none;stroke:#15202b;stroke-width:2;stroke-linecap:round;stroke-linejoin:round;stroke-miterlimit:4;stroke-dasharray:none;stroke-opacity:1"
       d="m 84.241194,-189.34155 -21.46608,-38.00369 m 33.94591,46.42602 -27.95676,-49.49485 m 36.601396,72.8014 v 0 l -5.34984,-3.80969 5.05716,-2.95256 z M 73.890494,-232.0376 c -6.0218,0.62374 -11.43792,3.97911 -15.06087,8.88796 m 45.723606,45.39753 c -10.300566,-18.219 -20.572256,-36.4556 -30.890866,-54.66358 -2.28309,-3.76364 -7.50881,-3.49204 -10.78257,-1.33941 -3.39196,1.88613 -6.23974,6.3237 -4.25029,10.2254 10.2656,18.23439 20.57887,36.44162 30.86282,54.66555 l 15.060896,-8.88796 z m 0,0 -15.060886,8.88795 c 5.2911,3.7505 10.582196,7.50099 15.873326,11.25149 -0.27081,-6.71315 -0.54163,-13.4263 -0.81244,-20.13944 z"
       inkscape:connector-curvature="0"
       sodipodi:nodetypes="cccccccccccccccccccccc" />
    <path
       sodipodi:nodetypes="cccccccccccccccccccccc"
       inkscape:connector-curvature="0"
       d="m 469.11765,44.025972 30.94707,-32.819958 m -36.09513,47.282572 40.30452,-42.743722 m -60.28452,58.663562 v 0 l 2.39402,-6.267079 3.89377,3.710469 z M 506.93464,19.968605 C 505.01498,14.573464 500.66332,10.664834 495.24945,8.9502337 M 462.72902,66.849515 c 14.83394,-15.742901 29.69073,-31.464964 44.51028,-47.220989 3.02997,-3.396642 1.61744,-8.169642 -1.12986,-10.4901623 -2.52311,-2.52056 -7.32257,-3.67273 -10.54729,-0.5028 -14.8561,15.7156083 -29.67612,31.4664143 -44.51833,47.1955693 l 11.68519,11.018373 z m 0,0 -11.68519,-11.018373 c -2.35141,6.19243 -4.70283,12.384858 -7.05424,18.577287 6.24648,-2.519638 12.49295,-5.039277 18.73943,-7.558914 z"
       style="fill:none;stroke:#444b53;stroke-width:2;stroke-linecap:round;stroke-linejoin:round;stroke-miterlimit:4;stroke-dasharray:none;stroke-opacity:1"
       id="path840" />
    <path
       style="fill:none;stroke:#444b53;stroke-width:2;stroke-linecap:butt;stroke-linejoin:miter;stroke-miterlimit:4;stroke-dasharray:none;stroke-opacity:1"
       d="m 366.4602,77.666869 c 0,0 8.16207,3.408769 10.58862,-6.178391 2.42656,-9.58716 2.42656,-7.456679 2.42656,-7.456679 -0.24265,0.58586 -2.55668,24.388605 11.25041,9.37411 0,0 5.07372,7.669726 9.70624,1.278287 4.63252,-6.391439 3.75013,1.704384 10.80921,2.130481 7.05908,0.426095 8.60326,-2.982673 8.60326,-2.982673 1.09771,2.91674 1.98871,2.624361 5.9561,2.769626 l 2.86775,-2.769626 c 1.75285,3.730722 5.40177,4.256876 9.48564,4.047913"
       id="path851"
       inkscape:connector-curvature="0"
       sodipodi:nodetypes="csccsscccc" />
    <path
       sodipodi:nodetypes="csccsscccc"
       inkscape:connector-curvature="0"
       id="path853"
       d="m 28.975324,-156.94746 c 0,0 8.16207,3.40877 10.58862,-6.17839 2.42656,-9.58716 2.42656,-7.45668 2.42656,-7.45668 -0.24265,0.58586 -2.55668,24.3886 11.25041,9.37411 0,0 5.07372,7.66973 9.70624,1.27829 4.632522,-6.39144 3.750135,1.70438 10.809176,2.13048 7.059041,0.42609 8.603212,-2.98268 8.603212,-2.98268 1.097704,2.91674 1.988698,2.62437 5.956067,2.76963 l 2.867732,-2.76963 c 1.752841,3.73073 5.40174,4.25688 9.485589,4.04792"
       style="fill:none;stroke:#15202b;stroke-width:2;stroke-linecap:butt;stroke-linejoin:miter;stroke-miterlimit:4;stroke-dasharray:none;stroke-opacity:1" />
    <path
       id="path905"
       style="opacity:1;fill:#15202b;fill-opacity:1;fill-rule:nonzero;stroke:none;stroke-width:1.99999988;stroke-linecap:round;stroke-linejoin:round;stroke-miterlimit:4;stroke-dasharray:none;stroke-opacity:1;paint-order:markers fill stroke"
       d="m 53.01506,92.693204 18.606641,-4.992571 c 1.232866,-0.330808 2.492199,0.400041 2.823619,1.638672 l 4.415566,16.502295 c 0.331425,1.23863 -0.394271,2.50213 -1.62714,2.83293 l -18.606562,4.99286 c -1.23286,0.3308 -2.492194,-0.40004 -2.82362,-1.63867 L 51.387996,95.526411 c -0.331429,-1.238631 0.394279,-2.502114 1.627138,-2.832922 z m -23.563259,9.912656 16.425503,-4.407414 c 1.232865,-0.330808 2.4922,0.400047 2.823619,1.638677 l 0.269358,1.006647 c 0.33143,1.23865 -0.394271,2.50213 -1.627137,2.83294 l -16.425504,4.40741 c -1.232859,0.33081 -2.492191,-0.40004 -2.823621,-1.63868 l -0.269358,-1.00667 c -0.331427,-1.23863 0.394279,-2.50211 1.627139,-2.83292 z m 2.596646,9.70434 16.425497,-4.40741 c 1.232865,-0.33081 2.4922,0.40004 2.823626,1.63868 l 0.269351,1.00664 c 0.331428,1.23865 -0.394272,2.50213 -1.627139,2.83293 l -16.425495,4.40741 c -1.232867,0.33081 -2.4922,-0.40005 -2.823626,-1.63867 L 30.4213,115.14311 c -0.331426,-1.23862 0.394281,-2.5021 1.627147,-2.83291 z m 3.357192,13.79489 42.910341,-11.51394 c 1.232867,-0.33081 2.492201,0.40003 2.823629,1.63868 l 0.269358,1.00664 c 0.331429,1.23865 -0.394279,2.50213 -1.627138,2.83293 l -42.91035,11.51394 c -1.232859,0.3308 -2.49219,-0.40003 -2.82362,-1.63867 L 33.778508,128.938 c -0.331426,-1.23862 0.394272,-2.50211 1.627131,-2.83291 z m 2.56647,10.2157 42.910374,-11.51384 c 1.23286,-0.33081 2.4922,0.40004 2.823619,1.63867 l 0.269357,1.00665 c 0.33143,1.23864 -0.394271,2.50212 -1.627136,2.83292 l -42.910351,11.51395 c -1.232849,0.33081 -2.492183,-0.40004 -2.823613,-1.63867 l -0.269357,-1.00667 c -0.331426,-1.23862 0.39428,-2.5021 1.627131,-2.83292 z m 2.628811,10.19899 42.910348,-11.51395 c 1.232853,-0.33079 2.492186,0.40005 2.823612,1.63868 l 0.269359,1.00666 c 0.331428,1.23864 -0.394279,2.50212 -1.627132,2.83292 L 42.06676,151.99804 c -1.232867,0.33081 -2.4922,-0.40004 -2.823619,-1.63868 L 38.97378,149.3527 c -0.331427,-1.23863 0.394274,-2.50211 1.62714,-2.83292 z m 2.566476,10.21571 42.910345,-11.51395 c 1.232865,-0.3308 2.492199,0.40006 2.823619,1.63868 l 0.269361,1.00667 c 0.331425,1.23863 -0.394275,2.5021 -1.627142,2.83291 l -42.91034,11.51395 c -1.232859,0.33081 -2.492193,-0.40005 -2.823619,-1.63867 l -0.269361,-1.00667 c -0.331427,-1.23863 0.394281,-2.50211 1.62714,-2.83291 z m 28.814769,1.22663 16.425515,-4.40741 c 1.232859,-0.3308 2.492199,0.40004 2.823626,1.63868 l 0.269351,1.00665 c 0.33143,1.23864 -0.394278,2.50212 -1.627138,2.83293 l -16.425512,4.40741 c -1.232858,0.33081 -2.492189,-0.40003 -2.823619,-1.63867 l -0.269357,-1.00665 c -0.331419,-1.23863 0.394277,-2.50213 1.627137,-2.83293 z"
       inkscape:connector-curvature="0" />
    <path
       style="opacity:1;fill:none;fill-opacity:1;fill-rule:nonzero;stroke:#15202b;stroke-width:1.99999988;stroke-linecap:round;stroke-linejoin:round;stroke-miterlimit:4;stroke-dasharray:none;stroke-opacity:1;paint-order:markers fill stroke"
       d="M 27.492126,97.255598 71.557077,85.431886 c 2.441205,-0.655033 4.934808,0.792118 5.591066,3.24473 L 95.035274,155.5258 c 0.656257,2.45261 -0.78071,4.95443 -3.221908,5.60947 L 47.748419,172.959 c -2.441199,0.65503 -4.934818,-0.79212 -5.591074,-3.24473 l -17.88713,-66.84918 c -0.656258,-2.45261 0.780724,-4.954444 3.221915,-5.609474 z"
       id="rect871"
       inkscape:connector-curvature="0" />
    <path
       inkscape:connector-curvature="0"
       id="path923"
       d="M 27.492126,97.255598 71.557077,85.431886 c 2.441205,-0.655033 4.934808,0.792118 5.591066,3.24473 L 95.035274,155.5258 c 0.656257,2.45261 -0.78071,4.95443 -3.221908,5.60947 L 47.748419,172.959 c -2.441199,0.65503 -4.934818,-0.79212 -5.591074,-3.24473 l -17.88713,-66.84918 c -0.656258,-2.45261 0.780724,-4.954444 3.221915,-5.609474 z"
       style="opacity:1;fill:none;fill-opacity:1;fill-rule:nonzero;stroke:#15202b;stroke-width:1.99999988;stroke-linecap:round;stroke-linejoin:round;stroke-miterlimit:4;stroke-dasharray:none;stroke-opacity:1;paint-order:markers fill stroke" />
    <path
       inkscape:connector-curvature="0"
       d="m 490.96681,-139.32884 18.61011,4.97963 c 1.2331,0.32995 1.95829,1.59255 1.62599,2.83094 l -4.42715,16.49919 c -0.3323,1.2384 -1.59252,1.96978 -2.82561,1.63982 l -18.6102,-4.97934 c -1.23308,-0.32995 -1.95827,-1.59254 -1.62599,-2.83094 l 4.42717,-16.4992 c 0.33229,-1.2384 1.59251,-1.96975 2.8256,-1.63981 z m -25.36271,-3.19701 16.42861,4.39581 c 1.2331,0.32995 1.95828,1.59255 1.62599,2.83095 l -0.27006,1.00646 c -0.33229,1.23842 -1.59251,1.96977 -2.82561,1.63983 l -16.42861,-4.39582 c -1.23309,-0.32994 -1.95828,-1.59254 -1.62598,-2.83095 l 0.27006,-1.00648 c 0.33229,-1.2384 1.59251,-1.96975 2.8256,-1.63981 z m -2.60341,9.70253 16.4286,4.39581 c 1.2331,0.32995 1.95829,1.59255 1.626,2.83095 l -0.27006,1.00646 c -0.3323,1.23841 -1.59251,1.96977 -2.82561,1.63981 l -16.4286,-4.39581 c -1.2331,-0.32995 -1.95828,-1.59255 -1.626,-2.83095 l 0.27007,-1.00648 c 0.33228,-1.23839 1.5925,-1.96974 2.8256,-1.63979 z m -3.99003,13.62532 42.91842,11.4838 c 1.2331,0.32995 1.95829,1.59254 1.62599,2.83095 l -0.27005,1.00646 c -0.33229,1.23842 -1.59252,1.96977 -2.82561,1.63982 l -42.91842,-11.48381 c -1.23309,-0.32995 -1.95828,-1.59253 -1.62599,-2.83094 l 0.27007,-1.00648 c 0.33228,-1.23839 1.5925,-1.96975 2.82559,-1.6398 z m -2.88522,10.13029 42.91839,11.483904 c 1.23309,0.32994 1.95829,1.592544 1.62599,2.83094 l -0.27005,1.006464 c -0.33229,1.238409 -1.59251,1.969764 -2.82561,1.639811 l -42.91842,-11.483799 c -1.23309,-0.32994 -1.95827,-1.59254 -1.62599,-2.83094 l 0.27007,-1.00648 c 0.33229,-1.23839 1.5925,-1.96974 2.82559,-1.63982 z m -2.82288,10.146983 42.91843,11.483803 c 1.23307,0.32995 1.95827,1.59255 1.62598,2.83095 l -0.27006,1.00647 c -0.33229,1.23841 -1.59252,1.96976 -2.8256,1.63981 l -42.91842,-11.483801 c -1.2331,-0.329945 -1.95829,-1.592545 -1.62599,-2.830949 l 0.27006,-1.006473 c 0.33229,-1.2384 1.5925,-1.969756 2.8256,-1.63981 z m -2.88522,10.130303 42.91842,11.4838 c 1.2331,0.32995 1.95828,1.59256 1.62599,2.83095 l -0.27006,1.00648 c -0.33229,1.2384 -1.5925,1.96975 -2.8256,1.6398 l -42.91842,-11.4838 c -1.23309,-0.32994 -1.95828,-1.59255 -1.62599,-2.83094 l 0.27006,-1.00648 c 0.33229,-1.2384 1.59251,-1.96975 2.8256,-1.6398 z m 24.34101,15.46968 16.42862,4.39582 c 1.23308,0.32995 1.95829,1.59255 1.62599,2.83096 l -0.27006,1.00646 c -0.33229,1.23841 -1.59252,1.96976 -2.82561,1.63982 l -16.42861,-4.39583 c -1.2331,-0.32994 -1.95829,-1.59253 -1.62599,-2.83094 l 0.27005,-1.00646 c 0.33229,-1.2384 1.59252,-1.96977 2.82561,-1.63982 z"
       style="opacity:1;fill:#15202b;fill-opacity:1;fill-rule:nonzero;stroke:none;stroke-width:1.99999988;stroke-linecap:round;stroke-linejoin:round;stroke-miterlimit:4;stroke-dasharray:none;stroke-opacity:1;paint-order:markers fill stroke"
       id="path925" />
    <path
       style="opacity:1;fill:none;fill-opacity:1;fill-rule:nonzero;stroke:#15202b;stroke-width:1.99999988;stroke-linecap:round;stroke-linejoin:round;stroke-miterlimit:4;stroke-dasharray:none;stroke-opacity:1;paint-order:markers fill stroke"
       d="m 466.58211,-148.13915 44.07322,11.79284 c 2.44166,0.65332 3.87761,3.1534 3.21963,5.60555 l -17.93388,66.836646 c -0.65796,2.45216 -3.15333,3.90031 -5.59498,3.247 l -44.07323,-11.79283 c -2.44166,-0.65332 -3.87762,-3.1534 -3.21964,-5.60555 l 17.93387,-66.836646 c 0.65797,-2.45216 3.15335,-3.90032 5.595,-3.247 z"
       id="path927"
       inkscape:connector-curvature="0" />
    <path
       sodipodi:nodetypes="ccsccscccccc"
       inkscape:connector-curvature="0"
       id="path938"
       d="m 512.04527,264.7887 -4.43653,-16.54326 c 0,0 -2.57108,-8.74307 -11.19993,-6.68445 -8.62886,2.05863 -6.98053,11.30023 -6.98053,11.30023 l 7.1029,27.42374 c 0,0 3.17692,11.0959 13.0336,8.45706 9.85668,-2.63883 8.2212,-13.8959 8.2212,-13.8959 l -10.53845,-38.82766 c 0,0 -4.25437,-9.29843 -12.39093,-7.74885 l -4.34162,1.16233 c 0,0 -6.60259,1.6419 -6.7043,12.9868 l 9.23622,35.37858"
       style="fill:none;stroke:#15202b;stroke-width:2;stroke-linecap:butt;stroke-linejoin:miter;stroke-miterlimit:4;stroke-dasharray:none;stroke-opacity:1" />
    <path
       style="fill:none;stroke:#444b53;stroke-width:2;stroke-linecap:butt;stroke-linejoin:miter;stroke-miterlimit:4;stroke-dasharray:none;stroke-opacity:1"
       d="m 13.556404,267.809 8.567072,-14.83131 c 0,0 4.74634,-7.77971 12.548365,-3.55793 7.80203,4.2218 3.817958,12.72188 3.817958,12.72188 l -13.958658,24.65093 c 0,0 -5.940496,9.89557 -14.7783395,4.79556 C 0.91495775,286.48811 5.4082517,276.03791 5.4082517,276.03791 L 25.636956,241.26082 c 0,0 6.51601,-7.88048 13.974263,-4.27781 l 3.892852,2.24642 c 0,0 5.952656,3.29483 3.114622,14.27949 L 28.540541,285.2915"
       id="path940"
       inkscape:connector-curvature="0"
       sodipodi:nodetypes="ccsccscccccc" />
    <path
       sodipodi:nodetypes="ccsccscccccc"
       inkscape:connector-curvature="0"
       id="path942"
       d="m 486.36398,-206.90624 -14.83497,8.56075 c 0,0 -8.0003,4.36425 -12.64616,-3.19292 -4.64586,-7.55721 3.05449,-12.92646 3.05449,-12.92646 l 24.41402,-14.369 c 0,0 10.0924,-5.59957 15.1962,3.2361 5.10378,8.83566 -4.01262,15.63916 -4.01262,15.63916 l -34.90713,20.00348 c 0,0 -9.58327,3.5667 -14.24097,-3.28243 l -2.24809,-3.89189 c 0,0 -3.50774,-5.82973 4.4424,-13.92371 l 31.54743,-18.48544"
       style="fill:none;stroke:#444b53;stroke-width:2;stroke-linecap:butt;stroke-linejoin:miter;stroke-miterlimit:4;stroke-dasharray:none;stroke-opacity:1" />
    <path
       style="fill:none;stroke:#444b53;stroke-width:2;stroke-linecap:butt;stroke-linejoin:miter;stroke-miterlimit:4;stroke-dasharray:none;stroke-opacity:1"
       d="m 84.081918,-49.994609 5.202541,16.318589 c 0,0 2.559012,8.746596 -5.814649,11.675186 -8.373699,2.928582 -11.978548,-5.739134 -11.978548,-5.739134 l -8.835925,-26.915404 c 0,0 -3.320098,-11.053896 6.400286,-14.157439 9.720369,-3.103526 14.424738,7.253369 14.424738,7.253369 l 12.10473,38.368244 c 0,0 1.44244,10.123231 -6.241974,13.2142821 l -4.281583,1.3670279 c 0,0 -6.443355,2.1847583 -12.657105,-7.307689 L 61.066861,-50.679789"
       id="path944"
       inkscape:connector-curvature="0"
       sodipodi:nodetypes="ccsccscccccc" />
  </g>
</svg>
