<?xml version="1.0" encoding="UTF-8" standalone="no"?>
<svg
   xmlns:dc="http://purl.org/dc/elements/1.1/"
   xmlns:cc="http://creativecommons.org/ns#"
   xmlns:rdf="http://www.w3.org/1999/02/22-rdf-syntax-ns#"
   xmlns:svg="http://www.w3.org/2000/svg"
   xmlns="http://www.w3.org/2000/svg"
   xmlns:sodipodi="http://sodipodi.sourceforge.net/DTD/sodipodi-0.dtd"
   xmlns:inkscape="http://www.inkscape.org/namespaces/inkscape"
   id="ps_x5F_cc_x5F_app_x5F_RGB.svg"
   viewBox="0 0 56.832 56.820344"
   width="592"
   height="592"
   version="1.1"
   sodipodi:docname="adobexd.svg"
   inkscape:version="0.92.2 (5c3e80d, 2017-08-06)">
  <metadata
     id="metadata15">
    <rdf:RDF>
      <cc:Work
         rdf:about="">
        <dc:format>image/svg+xml</dc:format>
        <dc:type
           rdf:resource="http://purl.org/dc/dcmitype/StillImage" />
        <dc:title></dc:title>
      </cc:Work>
    </rdf:RDF>
  </metadata>
  <defs
     id="defs13" />
  <sodipodi:namedview
     pagecolor="#ffffff"
     bordercolor="#666666"
     borderopacity="1"
     objecttolerance="10"
     gridtolerance="10"
     guidetolerance="10"
     inkscape:pageopacity="0"
     inkscape:pageshadow="2"
     inkscape:window-width="1920"
     inkscape:window-height="1017"
     id="namedview11"
     showgrid="false"
     fit-margin-top="40"
     fit-margin-left="40"
     fit-margin-right="40"
     fit-margin-bottom="40"
     scale-x="1e-005"
     inkscape:zoom="0.5475872"
     inkscape:cx="470.70467"
     inkscape:cy="403.67724"
     inkscape:window-x="-8"
     inkscape:window-y="-8"
     inkscape:window-maximized="1"
     inkscape:current-layer="ps_x5F_cc_x5F_app_x5F_RGB.svg" />
  <style
     id="style2">.st0{fill:#2e001e}.st1{fill:#ff2bc2}</style>
  <path
     class="st0"
     d="m 5.888,5.935076 h 45.056 v 44.95098 H 5.888 Z"
     id="path4"
     inkscape:connector-curvature="0"
     style="fill:#2e001e;stroke-width:0.99999988" />
  <path
     class="st1"
     d="m 3.84,3.834566 v 49.152 h 49.152 v -49.152 z m 2.048,2.10051 h 45.056 v 44.95098 H 5.888 Z"
     id="path6"
     inkscape:connector-curvature="0"
     style="fill:#ff2bc2;stroke-width:0.99999988" />
  <path
     class="st1"
     d="m 39.53664,24.482606 c -0.3072,-0.14704 -0.69632,-0.21005 -1.18784,-0.21005 -2.58048,0 -4.3008,2.03749 -4.3008,5.41932 0,3.86495 1.76128,5.41932 4.05504,5.41932 0.49152,0 1.024,-0.063 1.41312,-0.23105 v -10.39754 z m -9.17504,5.37731 c 0,-4.89419 3.072,-8.71712 8.11008,-8.71712 0.43008,0 0.65536,0 1.06496,0.042 v -5.46133 c 0,-0.12603 0.1024,-0.21005 0.2048,-0.21005 h 3.29728 c 0.16384,0 0.2048,0.063 0.2048,0.16804 v 19.19869 c 0,0.56713 0,1.28131 0.1024,2.0585 0,0.14703 0,0.16803 -0.12288,0.23106 -1.72032,0.8402 -3.52256,1.21829 -5.24288,1.21829 -4.44416,0 -7.61856,-2.81469 -7.61856,-8.52808 z m -6.98368,-3.40282 5.7344,11.40578 c 0.1024,0.16804 0.04096,0.33607 -0.122879,0.33607 H 25.42592 c -0.22528,0 -0.32768,-0.063 -0.43008,-0.27306 -1.31072,-2.77267 -2.64192,-5.65038 -4.01408,-8.63311 H 20.9408 c -1.2288,2.81469 -2.58048,5.88144 -3.8912,8.65411 -0.1024,0.16805 -0.2048,0.23106 -0.36864,0.23106 h -3.39968 c -0.2048,0 -0.22528,-0.16804 -0.12288,-0.29407 l 5.61152,-11.06971 -5.4272,-11.00669 c -0.12288,-0.16803 0,-0.31507 0.14336,-0.31507 h 3.52256 c 0.2048,0 0.3072,0.042 0.36864,0.23106 1.29024,2.79368 2.60096,5.54536 3.82976,8.36004 H 21.248 c 1.18784,-2.77268 2.49856,-5.56636 3.74784,-8.31803 0.1024,-0.16804 0.16384,-0.27307 0.36864,-0.27307 h 3.29728 c 0.16384,0 0.22528,0.12603 0.12288,0.31507 z"
     id="path8"
     inkscape:connector-curvature="0"
     style="fill:#ff2bc2;stroke-width:0.99999988" />
</svg>
