<?xml version="1.0" encoding="UTF-8" standalone="no"?>
<!-- Created with Inkscape (http://www.inkscape.org/) -->

<svg
   xmlns:dc="http://purl.org/dc/elements/1.1/"
   xmlns:cc="http://creativecommons.org/ns#"
   xmlns:rdf="http://www.w3.org/1999/02/22-rdf-syntax-ns#"
   xmlns:svg="http://www.w3.org/2000/svg"
   xmlns="http://www.w3.org/2000/svg"
   xmlns:sodipodi="http://sodipodi.sourceforge.net/DTD/sodipodi-0.dtd"
   xmlns:inkscape="http://www.inkscape.org/namespaces/inkscape"
   width="592"
   height="592"
   viewBox="0 0 592 592"
   version="1.1"
   id="svg8"
   inkscape:version="0.92.2 (5c3e80d, 2017-08-06)"
   sodipodi:docname="javascript.svg">
  <defs
     id="defs2" />
  <sodipodi:namedview
     id="base"
     pagecolor="#ffffff"
     bordercolor="#666666"
     borderopacity="1.0"
     inkscape:pageopacity="0.0"
     inkscape:pageshadow="2"
     inkscape:zoom="0.98994949"
     inkscape:cx="168.76658"
     inkscape:cy="134.98516"
     inkscape:document-units="px"
     inkscape:current-layer="layer1"
     showgrid="false"
     units="px"
     inkscape:showpageshadow="false"
     inkscape:snap-page="true"
     inkscape:window-width="1920"
     inkscape:window-height="1017"
     inkscape:window-x="-8"
     inkscape:window-y="-8"
     inkscape:window-maximized="1"
     fit-margin-top="40"
     fit-margin-left="40"
     fit-margin-right="40"
     fit-margin-bottom="40" />
  <metadata
     id="metadata5">
    <rdf:RDF>
      <cc:Work
         rdf:about="">
        <dc:format>image/svg+xml</dc:format>
        <dc:type
           rdf:resource="http://purl.org/dc/dcmitype/StillImage" />
        <dc:title></dc:title>
      </cc:Work>
    </rdf:RDF>
  </metadata>
  <g
     inkscape:label="Capa 1"
     inkscape:groupmode="layer"
     id="layer1"
     transform="translate(40,-121.53331)">
    <path
       style="fill:#f8e320;fill-opacity:1;stroke:none;stroke-width:7.55905533;stroke-linecap:round;stroke-linejoin:round;stroke-miterlimit:4;stroke-dasharray:none;stroke-opacity:1;paint-order:normal"
       d="m 72.85714,161.53331 h 366.28572 c 40.36286,0 72.85714,32.49428 72.85714,72.85714 v 366.28572 c 0,40.36286 -32.49428,72.85714 -72.85714,72.85714 H 72.85714 C 32.494284,673.53331 0,641.03903 0,600.67617 V 234.39045 c 0,-40.36286 32.494284,-72.85714 72.85714,-72.85714 z"
       id="rect864"
       inkscape:connector-curvature="0" />
    <path
       style="fill:#000000;stroke-width:1"
       d="m 188.43231,628.20136 c -14.44184,-1.64806 -26.03493,-5.70791 -36.53845,-12.79561 -5.65549,-3.81628 -13.51247,-11.33626 -17.36799,-16.62301 -4.05421,-5.55921 -8.79377,-14.07676 -8.1485,-14.64381 0.45457,-0.39947 37.12562,-22.66195 38.7286,-23.5116 0.21282,-0.1128 1.93234,2.40569 3.82116,5.59664 8.44695,14.27019 17.83571,20.02058 30.86976,18.907 7.77833,-0.66455 11.05758,-1.98091 15.15889,-6.08513 2.7085,-2.71042 4.0111,-4.67103 5.17097,-7.7831 l 1.55042,-4.16 0.32094,-88.00001 0.32093,-88.00001 24.16,-0.1677 24.16,-0.16769 -0.004,87.5277 c -0.003,73.5082 -0.15339,88.50156 -0.93791,93.60771 -2.93295,19.08943 -10.93148,33.52435 -24.02192,43.35223 -7.25562,5.44728 -18.7284,10.06676 -29.79391,11.99642 -6.92629,1.20785 -20.93962,1.69282 -27.44921,0.94997 z m 183.81842,-0.003 c -22.5211,-2.36213 -41.98278,-10.71029 -57.30022,-24.57914 -6.66784,-6.03724 -19.05057,-23.37933 -17.6317,-24.6933 0.66649,-0.61722 36.9154,-21.62753 38.09427,-22.0799 0.57243,-0.21966 2.10837,1.41949 4.34666,4.63875 4.2978,6.18138 12.0499,13.88571 16.82912,16.7254 4.89626,2.90924 10.49914,5.10505 16.0162,6.27686 5.66742,1.20375 20.32245,0.83295 24.81765,-0.62794 8.1694,-2.65495 14.161,-7.27627 17.0432,-13.1453 1.5387,-3.13349 1.7731,-4.37239 1.7731,-9.37085 0,-5.0171 -0.2318,-6.23206 -1.7973,-9.42008 -3.8265,-7.79228 -12.1504,-13.09887 -37.88267,-24.15059 -24.8061,-10.65395 -35.96587,-17.19743 -45.69446,-26.79278 -10.17941,-10.03998 -15.63544,-20.2485 -18.32447,-34.2861 -1.36713,-7.13685 -1.35783,-21.60998 0.0181,-28.19054 5.45182,-26.0737 24.70395,-43.77287 53.76082,-49.42426 7.70797,-1.49915 25.11054,-1.48527 33.43158,0.0267 21.5548,3.91649 35.8476,13.57971 48.4407,32.7503 2.2681,3.45278 2.7326,4.58375 2.1168,5.1535 -0.434,0.40148 -8.9225,5.93321 -18.8634,12.29274 l -18.0743,11.56276 -2.7871,-4.30828 c -4.0797,-6.30661 -8.8832,-10.76668 -14.5043,-13.46727 -4.7534,-2.28373 -4.88072,-2.30611 -13.11998,-2.30611 -7.25371,0 -8.71612,0.18282 -11.41088,1.42652 -5.07171,2.34072 -7.88183,4.99473 -10.13534,9.57226 -1.83905,3.73563 -2.06719,4.79457 -2.03772,9.45806 0.0367,5.79871 1.60355,10.27254 5.00757,14.29767 3.48158,4.11684 13.0306,9.61144 26.89637,15.47644 12.09178,5.11463 24.32968,10.81377 31.03998,14.45519 31.3996,17.03929 44.1581,37.76215 42.6893,69.33726 -0.8351,17.95286 -6.7609,31.5355 -18.6808,42.81868 -10.8961,10.31406 -24.1766,16.51743 -41.9285,19.58492 -7.3421,1.26871 -24.45767,1.79479 -32.14829,0.98815 z"
       id="path826-7"
       inkscape:connector-curvature="0" />
  </g>
</svg>
