<?xml version="1.0" encoding="UTF-8" standalone="no"?>
<!-- Created with Inkscape (http://www.inkscape.org/) -->

<svg
   xmlns:dc="http://purl.org/dc/elements/1.1/"
   xmlns:cc="http://creativecommons.org/ns#"
   xmlns:rdf="http://www.w3.org/1999/02/22-rdf-syntax-ns#"
   xmlns:svg="http://www.w3.org/2000/svg"
   xmlns="http://www.w3.org/2000/svg"
   xmlns:sodipodi="http://sodipodi.sourceforge.net/DTD/sodipodi-0.dtd"
   xmlns:inkscape="http://www.inkscape.org/namespaces/inkscape"
   width="520"
   height="520"
   viewBox="0 0 137.58334 137.58367"
   version="1.1"
   id="svg4562"
   inkscape:version="0.92.2 (5c3e80d, 2017-08-06)"
   sodipodi:docname="mongodb.svg">
  <defs
     id="defs4556" />
  <sodipodi:namedview
     id="base"
     pagecolor="#ffffff"
     bordercolor="#666666"
     borderopacity="1.0"
     inkscape:pageopacity="0.0"
     inkscape:pageshadow="2"
     inkscape:zoom="0.49497475"
     inkscape:cx="-613.38026"
     inkscape:cy="70.358325"
     inkscape:document-units="px"
     inkscape:current-layer="layer1"
     showgrid="false"
     units="px"
     inkscape:showpageshadow="false"
     inkscape:snap-page="true"
     inkscape:window-width="1920"
     inkscape:window-height="1017"
     inkscape:window-x="-8"
     inkscape:window-y="-8"
     inkscape:window-maximized="1"
     fit-margin-top="20"
     fit-margin-bottom="20"
     fit-margin-left="10"
     fit-margin-right="10" />
  <metadata
     id="metadata4559">
    <rdf:RDF>
      <cc:Work
         rdf:about="">
        <dc:format>image/svg+xml</dc:format>
        <dc:type
           rdf:resource="http://purl.org/dc/dcmitype/StillImage" />
        <dc:title />
      </cc:Work>
    </rdf:RDF>
  </metadata>
  <g
     inkscape:label="Capa 1"
     inkscape:groupmode="layer"
     id="layer1"
     transform="translate(-1.0112526,-145.26982)">
    <path
       style="fill:#4faa41;fill-opacity:1;stroke-width:1"
       d="m 20.09324,194.78462 c 1.76801,4.78597 6.62213,7.61151 8.93952,12.08422 4.96649,8.15537 7.11265,18.35891 4.22231,27.61976 -1.76581,6.15581 -5.80265,11.56212 -10.77852,15.45121 l -1.9104,0.15724 m 0,0 -1.91039,0.15724 C 18.12885,249.5042 17.38529,248.88365 16.55567,248.35691 9.8523099,242.19003 5.2252097,233.28972 5.8135797,224.02127 6.1006099,214.09388 10.3486,204.15143 17.97983,197.65862 c 1.66221,-0.19654 1.39234,-4.76193 2.11341,-2.874"
       id="path6650"
       inkscape:connector-curvature="0"
       sodipodi:nodetypes="ccccccccccc" />
    <path
       style="fill:#bebda2;fill-opacity:1;stroke-width:1"
       d="m 22.47655,249.93981 c -1.38825,2.2738 -0.48757,3.77471 -0.84224,6.33366 0.23634,0.82138 -0.78078,0.0558 -1.1025,0.0659 v 5e-5 c -1.80659,-0.5478 -0.30083,-3.33094 -1.12316,-4.82782 0.037,-1.04497 -0.22599,-0.50721 -0.75289,-1.25731 0.61127,-0.66351 1.83728,-2.10699 1.83728,-2.10699 0,0 0.99914,1.14778 1.98351,1.79251 z"
       id="path6609"
       inkscape:connector-curvature="0"
       sodipodi:nodetypes="cccccccc" />
    <path
       id="path6603"
       style="fill:#94795d;fill-opacity:1;stroke-width:1"
       d="m 110.13783,204.63743 c -4.31465,-0.0125 -8.63855,0.17737 -12.950122,0.0977 -1.669187,0.39076 -4.286503,-0.78237 -5.298897,0.69195 -1.691566,2.00824 0.07741,2.92082 2.08721,2.74608 1.867374,0.0264 4.179327,0.82345 3.952217,3.09387 -0.12652,11.18756 0.23774,22.38999 -0.22376,33.56746 0.43928,2.48127 -2.134662,3.24266 -4.084509,3.33726 -1.875755,-0.34054 -2.496418,1.81484 -2.462898,3.31246 4.075811,0.10753 8.152757,0.17276 12.227679,0.31006 7.89449,0.41277 16.59717,0.29234 22.93142,-5.13664 3.22581,-2.57936 4.85896,-6.71274 4.62918,-10.78177 -0.15331,-4.61879 -3.67675,-8.44447 -7.89719,-9.9534 -2.2371,-0.60759 -2.94001,-1.00725 -0.44597,-2.01693 3.93567,-2.32388 5.78135,-7.31717 4.37337,-11.65045 -1.03338,-4.15159 -5.16442,-6.44276 -9.08626,-7.27449 -2.57746,-0.25531 -5.16268,-0.33563 -7.75147,-0.34313 z m -2.08617,3.75429 c 4.09217,-0.0178 9.06383,0.64183 10.86703,4.79557 1.53852,3.64093 0.99018,9.29971 -3.27267,10.77661 -0.23966,0.0925 -0.4796,0.185 -0.71933,0.2775 -3.13921,0.17949 -6.40542,0.33351 -9.55498,0.0382 0.0442,-3.76654 0.0886,-7.53303 0.13281,-11.29957 0.24104,-1.59495 -0.79328,-4.77503 1.7415,-4.57698 0.26379,-0.006 0.53283,-0.0102 0.80564,-0.0114 z m -1.12397,19.63239 c 1.04862,-0.0234 2.3548,0.29861 3.19929,0.15813 4.84202,-0.0983 10.73886,1.75655 12.26385,6.86418 1.52384,4.76203 -0.47669,11.23862 -5.81773,12.40855 -1.88227,0.57665 -4.00955,0.48045 -5.95674,0.33951 -2.29701,0.0577 -4.4815,-1.15041 -4.98988,-3.51658 -0.35991,-5.00931 -0.18289,-10.13749 -0.33952,-15.19184 0.16537,-0.81655 0.82514,-1.04377 1.64073,-1.06195 z M 41.27485,204.58472 c -1.65485,-0.0727 -2.58241,1.54366 -2.79828,3.19929 1.78972,0.36362 3.68678,0.30945 5.38985,1.01027 2.81294,0.79109 1.77454,4.19084 1.96991,6.38824 -0.0984,9.78127 0.33953,19.57986 -0.1292,29.34911 0.33366,2.01076 -1.24316,3.57746 -3.20652,3.57446 -1.99123,-0.34228 -2.66775,1.68962 -2.7621,3.28662 3.10148,0.47416 6.3559,0.15932 9.51518,0.33538 v 5.3e-4 c 3.81949,-0.001 7.64711,0.28816 11.45976,0.002 9.22614,0.11197 18.91585,-4.23574 23.4425,-12.56461 3.31222,-6.52502 3.73616,-14.59307 1.03249,-21.40438 -2.67832,-7.13241 -9.65566,-11.94675 -17.08681,-12.93564 -8.66609,-0.28163 -17.38606,-0.0268 -26.07282,-0.10232 -0.26613,-0.0841 -0.51755,-0.12863 -0.75396,-0.13901 z m 14.74121,3.65714 c 0.22528,0.003 0.45469,0.0293 0.68369,0.0791 6.06835,-0.34744 12.72082,0.96542 16.94211,5.67562 4.7775,4.86593 5.65317,12.21569 4.80591,18.70273 -0.68876,6.64291 -5.0839,13.39658 -11.92899,14.80736 -1.58035,0.442 -3.23482,0.28978 -4.85552,0.4129 -2.95983,-0.29557 -7.19674,-0.53695 -7.95971,-4.09639 -0.27003,-10.85962 -0.0386,-21.81618 -0.11576,-32.71325 -0.51514,-1.79869 0.85134,-2.88993 2.42827,-2.86804 z"
       inkscape:connector-curvature="0" />
    <path
       id="path6578"
       style="fill:#a64d1d;fill-opacity:1;stroke-width:1"
       d="m 6.6421299,190.79497 c -0.8301302,-2.38112 3.4166601,-0.76006 3.05991,-3.09408 0.0342,-3.86217 0.0683,-7.72434 0.10251,-11.58651 -0.64625,-1.26858 -4.3519302,-1.05579 -3.16072,-2.6354 2.23904,-0.75084 4.6588801,-0.87809 6.8229301,-1.89992 0.67943,1.05892 -0.37139,4.28399 1.85034,2.03102 2.55545,-2.0655 6.97483,-3.16817 9.17599,-0.033 1.09054,2.23125 2.63574,-0.58215 4.17826,-0.89446 2.65421,-1.75969 6.57947,-1.40947 8.39006,1.3775 2.32704,3.78422 0.95926,8.4318 1.25851,12.63072 -0.95177,2.60749 2.597,2.19083 3.25397,3.27934 0.25244,2.318 -2.83813,0.88323 -4.2394,1.27638 -1.89746,0 -3.79493,0 -5.69239,0 -0.97979,-2.45193 2.06368,-1.47605 2.61902,-2.9897 -0.10095,-3.56663 0.19811,-7.23355 -0.14586,-10.73925 -1.02908,-3.07973 -4.97461,-3.36853 -7.30897,-1.62029 -1.64407,0.6989 -0.32005,3.11894 -0.7049,4.57449 0.15146,2.66385 -0.25667,5.54432 0.23896,8.07494 1.21194,0.60481 4.44216,1.50705 1.93544,2.69981 -3.01916,0 -6.03832,0 -9.05747,0 -1.17098,-2.35434 1.8816,-1.50694 2.71325,-2.76172 0.5006,-3.54717 0.44775,-7.35823 -0.0288,-10.91512 -0.55345,-2.87457 -4.13973,-3.65251 -6.38723,-2.19496 -2.41659,0.51708 -1.66866,2.95187 -1.7551,4.79528 0.13337,2.7709 -0.26926,5.73337 0.19596,8.38566 1.1521,0.64209 4.3625,1.49298 1.85641,2.69086 -3.01914,0 -6.0382801,0 -9.0574101,0 l -0.0753,-0.29986 -0.0381,-0.1517 z M 67.65188,191.1577 c -1.18971,-2.71242 2.69856,-1.23643 2.74911,-3.23832 0.31605,-3.89039 0.26617,-7.78763 0.16527,-11.68582 -0.71274,-1.23095 -4.19985,-0.92998 -3.28653,-2.65157 2.15534,-1.02685 4.81593,-0.97796 7.04656,-2.03996 1.04837,1.06798 -0.23743,4.23711 2.13133,1.74983 2.63254,-2.15065 7.05641,-2.79707 9.26727,0.28172 2.61596,3.10243 1.31997,7.45564 1.71347,11.1641 0.22451,1.53012 -0.73982,4.27201 1.61269,4.33304 1.686832,-0.5431 2.272876,2.17452 0.750535,2.26616 -3.100365,0 -6.200725,0 -9.301095,0 -0.95371,-2.39854 1.29186,-1.84157 2.56455,-2.77095 0.005,-3.50302 0.25621,-7.17287 -0.12154,-10.67068 -0.48942,-2.97235 -4.27469,-3.62996 -6.58246,-2.32938 -2.62924,1.08619 -1.21997,4.39976 -1.52058,6.57722 0.20343,2.22905 -0.28842,4.61265 0.36505,6.74166 1.64478,-0.0275 3.80226,1.07488 2.18998,2.49997 -3.21831,0.001 -6.43662,0.003 -9.65493,0.004 l -0.0887,-0.2311 z m 57.02925,-19.60352 c -1.01612,-0.0155 -2.03395,0.12964 -3.00188,0.44958 -4.59422,0.90425 -8.15041,5.38653 -7.63002,10.09034 -0.0308,4.34902 2.91385,8.86394 7.42538,9.43767 2.49041,0.56477 5.201,-0.0514 7.41092,-1.26556 4.55209,-2.39231 5.97587,-8.40043 4.24315,-12.99197 -1.21369,-3.55569 -4.81855,-5.66486 -8.44755,-5.72006 z m -1.62057,2.29546 c 3.46763,-0.0433 5.89259,3.45109 6.20686,6.70709 0.14423,2.88888 0.53107,6.87917 -2.49339,8.46098 -0.48316,0.38799 -1.07463,0.30872 -1.6521,0.35502 -4.39,0.38478 -6.7737,-4.66225 -6.66264,-8.43566 -0.34143,-2.78386 0.63035,-6.68697 3.89382,-7.03006 0.24013,-0.0355 0.47628,-0.0545 0.70745,-0.0574 z m -67.7659,-2.27479 c -0.13937,0.003 -0.27872,0.009 -0.41858,0.0191 -5.10214,0.0419 -10.58798,4.04587 -10.188,9.53792 -0.63161,4.75899 2.62297,9.9436 7.6078,10.45879 1.73761,0.41864 3.51659,0.0599 5.18108,-0.48266 5.03721,-1.33597 7.70484,-6.97308 6.72517,-11.87162 -0.54946,-4.3254 -4.58685,-7.7456 -8.90747,-7.66155 z m -1.92701,2.28048 c 0.1919,0.002 0.38858,0.019 0.58963,0.0517 3.76967,0.0729 5.84966,4.25155 5.92987,7.61348 0.16628,2.77946 0.024,6.64533 -3.06907,7.69773 -0.7452,0.34418 -1.53814,0.18168 -2.3275,0.19998 -4.12727,-0.9303 -5.86124,-5.78237 -5.46582,-9.61388 -0.34829,-2.68035 1.46437,-5.97823 4.34289,-5.94899 z m 48.47559,-2.22829 c -2.141592,0.0264 -4.276462,0.70585 -6.089549,1.90118 -3.961585,2.60197 -3.797562,9.51017 0.545187,11.5812 2.61209,0.68931 -1.189074,1.87865 -1.989545,2.65979 -0.929761,1.57836 1.125128,3.22517 2.569865,3.7977 -1.523218,1.16459 -3.102595,2.26618 -4.346499,3.74344 -1.603166,3.59611 2.245711,7.16451 5.674069,7.48378 2.562182,0.48218 5.229442,-0.01 7.598002,-1.03146 3.6771,-1.68086 7.18324,-5.82889 5.55728,-10.03401 -1.62228,-3.4333 -5.91629,-2.99443 -9.10022,-3.36001 -1.40204,0.23393 -4.760092,-0.54632 -2.972952,-2.29029 1.747482,-0.59808 3.931632,-0.49724 5.583642,-1.64745 1.8448,-1.17808 3.40389,-2.8935 3.7145,-5.14336 0.58916,-1.15975 -1.22655,-4.14438 0.65164,-3.61063 2.19658,0.60286 3.53778,-2.10341 2.62362,-3.79356 -1.40997,1.46784 -3.78686,1.36341 -5.58002,0.71417 -1.27608,-0.6171 -2.64032,-0.92764 -4.01061,-0.96687 -0.14274,-0.004 -0.28564,-0.005 -0.42841,-0.004 z m -1.46709,2.06086 c 1.44938,-0.0201 2.97507,0.69689 3.67989,2.02003 0.85651,2.47696 1.20587,6.35763 -1.55908,7.70392 -0.49983,0.36082 -1.07065,0.22114 -1.63815,0.22014 -3.455802,-0.36024 -4.474192,-4.6907 -3.704692,-7.54217 0.39962,-1.62457 1.77265,-2.38184 3.222032,-2.40192 z m 1.22059,18.42316 c 1.69871,0.0191 3.43001,0.3597 4.93615,0.99477 3.05716,1.5758 1.41141,6.44525 -1.71256,6.81613 -2.58809,0.72411 -5.850842,0.56851 -7.857412,-1.42111 -2.070705,-1.93708 -0.73757,-5.17604 1.66657,-6.07094 0.9404,-0.22606 1.948042,-0.33032 2.967252,-0.31885 z"
       inkscape:connector-curvature="0" />
    <path
       style="fill:#259035;fill-opacity:1;stroke:none;stroke-width:0.26458332px;stroke-linecap:butt;stroke-linejoin:miter;stroke-opacity:1"
       d="m 20.49304,248.1473 1.98351,1.79251 c 15.797502,-12.58596 11.125063,-30.81257 10.804891,-32.24753 -3.428226,-15.36481 -12.34804,-18.6113 -13.188201,-22.90766 -1.840664,17.5483 -3.514443,35.11682 0.3998,53.36268 z"
       id="path6657"
       inkscape:connector-curvature="0"
       sodipodi:nodetypes="ccscc" />
  </g>
</svg>
