<?xml version="1.0" encoding="UTF-8" standalone="no"?>
<svg
   xmlns:dc="http://purl.org/dc/elements/1.1/"
   xmlns:cc="http://creativecommons.org/ns#"
   xmlns:rdf="http://www.w3.org/1999/02/22-rdf-syntax-ns#"
   xmlns:svg="http://www.w3.org/2000/svg"
   xmlns="http://www.w3.org/2000/svg"
   xmlns:sodipodi="http://sodipodi.sourceforge.net/DTD/sodipodi-0.dtd"
   xmlns:inkscape="http://www.inkscape.org/namespaces/inkscape"
   width="1907.0714"
   height="1298.2445"
   viewBox="-18.458 6.58 145.81468 99.263775"
   version="1.1"
   id="svg12"
   sodipodi:docname="mysql.svg"
   inkscape:version="0.92.2 (5c3e80d, 2017-08-06)">
  <metadata
     id="metadata18">
    <rdf:RDF>
      <cc:Work
         rdf:about="">
        <dc:format>image/svg+xml</dc:format>
        <dc:type
           rdf:resource="http://purl.org/dc/dcmitype/StillImage" />
        <dc:title></dc:title>
      </cc:Work>
    </rdf:RDF>
  </metadata>
  <defs
     id="defs16" />
  <sodipodi:namedview
     pagecolor="#ffffff"
     bordercolor="#666666"
     borderopacity="1"
     objecttolerance="10"
     gridtolerance="10"
     guidetolerance="10"
     inkscape:pageopacity="0"
     inkscape:pageshadow="2"
     inkscape:window-width="1920"
     inkscape:window-height="1017"
     id="namedview14"
     showgrid="false"
     fit-margin-top="10"
     fit-margin-left="10"
     fit-margin-right="10"
     fit-margin-bottom="10"
     scale-x="0.07646"
     inkscape:zoom="0.13618003"
     inkscape:cx="1250.0018"
     inkscape:cy="866.29992"
     inkscape:window-x="-8"
     inkscape:window-y="-8"
     inkscape:window-maximized="1"
     inkscape:current-layer="svg12" />
  <path
     d="M -43.961396,-10.034833 H 147.1896 V 122.45517 H -43.961396 Z"
     id="path2"
     inkscape:connector-curvature="0"
     style="fill:none" />
  <path
     d="m 19.634842,93.647374 h -5.175 c -0.183,-8.735 -0.687,-16.947006 -1.511,-24.642006 h -0.046 l -7.879,24.642006 h -3.94 l -7.832,-24.642006 h -0.045 c -0.581,7.388 -0.947,15.602006 -1.099,24.642006 h -4.717 c 0.304,-10.993 1.068,-21.299006 2.289,-30.919006 h 6.414 l 7.465,22.719006 h 0.046 l 7.511,-22.719006 h 6.137 c 1.344,11.268 2.138,21.575006 2.382,30.919006 m 22.443,-22.812006 c -2.107,11.434006 -4.887,19.742006 -8.337,24.928006 -2.688,3.991997 -5.633,5.989996 -8.84,5.989996 -0.855,0 -1.91,-0.258 -3.16,-0.77 v -2.756999 c 0.611,0.088 1.328,0.138 2.152,0.138 1.498,0 2.702,-0.412 3.62,-1.238 1.098,-1.005997 1.647,-2.136997 1.647,-3.387997 0,-0.858 -0.428,-2.612 -1.282,-5.268 l -5.679,-17.636006 h 5.084 l 4.076,13.190006 c 0.916,2.995 1.298,5.086 1.145,6.277 2.229,-5.953 3.786,-12.444006 4.673,-19.468006 h 4.901 z"
     id="path4"
     inkscape:connector-curvature="0"
     style="fill:#5d87a1" />
  <path
     d="M 110.96284,93.647374 H 96.262842 V 62.728368 h 4.944998 v 27.113006 h 9.755 z m -18.547998,0.747 -5.684,-2.805 c 0.504,-0.414 0.986,-0.862 1.42,-1.381 2.416,-2.838 3.621,-7.035 3.621,-12.594006 0,-10.229 -4.014,-15.346 -12.045,-15.346 -3.938,0 -7.01,1.298 -9.207,3.895 -2.414,2.84 -3.619,7.022 -3.619,12.551 0,5.435006 1.068,9.422006 3.205,11.951006 1.955,2.291 4.902,3.438 8.842996,3.438 1.470004,0 2.819004,-0.18 4.048004,-0.543 l 7.4,4.307997 z m -18.413,-6.934 c -1.252,-2.014 -1.878,-5.248 -1.878,-9.707006 0,-7.785 2.365,-11.682 7.099996,-11.682 2.475004,0 4.289004,0.932 5.449004,2.792 1.25,2.017 1.879,5.222 1.879,9.619 0,7.849006 -2.367,11.774006 -7.099004,11.774006 -2.475996,0.001 -4.289996,-0.928 -5.450996,-2.796 m -9.256,-2.383 c 0,2.622 -0.962,4.773 -2.884,6.458 -1.924,1.678 -4.504,2.519 -7.737,2.519 -3.024,0 -5.956,-0.966 -8.794,-2.888 l 1.329,-2.655 c 2.442,1.223 4.653,1.831 6.638,1.831 1.863,0 3.319,-0.413 4.375,-1.232 1.055,-0.822 1.684,-1.975 1.684,-3.433 0,-1.837 -1.281,-3.407 -3.631,-4.722 -2.167,-1.190003 -6.501,-3.678006 -6.501,-3.678006 -2.349,-1.712 -3.525,-3.55 -3.525,-6.578 0,-2.506 0.877,-4.529 2.632,-6.068 1.757,-1.545 4.024,-2.315 6.803,-2.315 2.87,0 5.479,0.769 7.829,2.291 l -1.192,2.656 c -2.01,-0.854 -3.994,-1.281 -5.951,-1.281 -1.585,0 -2.809,0.381 -3.66,1.146 -0.858,0.762 -1.387,1.737 -1.387,2.933 0,1.828 1.308,3.418 3.722,4.759 2.196,1.192 6.638,3.723 6.638,3.723 2.409,1.709006 3.612,3.530006 3.612,6.534006"
     id="path6"
     inkscape:connector-curvature="0"
     style="fill:#f8981d" />
  <path
     d="m 117.17084,52.372368 c -2.99,-0.076 -5.305,0.225 -7.248,1.047 -0.561,0.224 -1.453,0.224 -1.531,0.933 0.303,0.3 0.338,0.784 0.601,1.198 0.448,0.747 1.229,1.752 1.942,2.276 0.783,0.6 1.569,1.194 2.393,1.717 1.453,0.899 3.1,1.422 4.516,2.318 0.825,0.521 1.645,1.195 2.471,1.756 0.406,0.299 0.666,0.784 1.193,0.971 v -0.114 c -0.264,-0.336 -0.339,-0.822 -0.598,-1.196 l -1.122,-1.082 c -1.084,-1.456 -2.431,-2.727 -3.884,-3.771 -1.196,-0.824 -3.812,-1.944 -4.297,-3.322 l -0.076,-0.076 c 0.822,-0.077 1.797,-0.375 2.578,-0.604 1.271,-0.335 2.43,-0.259 3.734,-0.594 0.6,-0.15 1.195,-0.338 1.797,-0.523 v -0.337 c -0.676,-0.673 -1.158,-1.567 -1.869,-2.203 -1.902,-1.643 -3.998,-3.25 -6.164,-4.595 -1.16,-0.749 -2.652,-1.231 -3.887,-1.868 -0.445,-0.225 -1.195,-0.336 -1.457,-0.71 -0.67,-0.822 -1.047,-1.904 -1.533,-2.877 -1.08,-2.053 -2.129,-4.331 -3.061,-6.502 -0.674,-1.456 -1.084,-2.91 -1.905998,-4.257 -3.85,-6.35 -8.031,-10.195982 -14.457,-13.970962 -1.381,-0.785996 -3.024,-1.120994 -4.779,-1.532992 l -2.803,-0.147999 c -0.598,-0.261998 -1.197,-0.972994 -1.719,-1.308992 -2.132,-1.343996 -7.621,-4.2569877 -9.189,-0.410999 -1.01,2.430987 1.494,4.820975 2.354,6.053968 0.635,0.855996 1.458,1.829991 1.902,2.801986 0.263,0.634996 0.337,1.308993 0.6,1.97999 0.598,1.644 1.157,3.473 1.943,5.007 0.41,0.782 0.857,1.604 1.381,2.312 0.3,0.414 0.822,0.597 0.936,1.272 -0.521,0.744 -0.562,1.867 -0.861,2.801 -1.344,4.221 -0.819,9.45 1.086,12.552 0.596,0.934 2.018,2.99 3.92,2.202 1.684,-0.672 1.311,-2.801 1.795,-4.668 0.111,-0.451 0.038,-0.747 0.262,-1.043 v 0.073 c 0.521,1.045 1.047,2.052 1.53,3.1 1.159,1.829 3.177,3.735 4.858,5.002 0.895,0.676 1.604,1.832 2.725,2.245 v -0.112 h -0.074 c -0.227,-0.335 -0.559,-0.485 -0.857,-0.745 -0.674,-0.673 -1.42,-1.495 -1.943,-2.241 -1.566,-2.093 -2.952,-4.41 -4.182,-6.801 -0.602,-1.16 -1.121,-2.428 -1.606,-3.586 -0.226,-0.447 -0.226,-1.121 -0.601,-1.346 -0.562,0.821 -1.381,1.532 -1.791,2.538 -0.711004,1.609 -0.785004,3.588 -1.049004,5.646 l -0.147,0.072 c -1.189996,-0.299 -1.603996,-1.53 -2.055996,-2.575 -1.119,-2.654 -1.307,-6.914 -0.336,-9.976 0.26,-0.783 1.385,-3.249 0.936,-3.995 -0.225,-0.715 -0.973,-1.122 -1.383,-1.685 -0.482,-0.708 -1.01,-1.604 -1.346,-2.39 -0.896,-2.091 -1.347,-4.407997 -2.312,-6.497986 -0.451,-0.973995 -1.234,-1.981989 -1.868,-2.878985 -0.712,-1.007994 -1.495,-1.717991 -2.058,-2.912985 -0.186,-0.410997 -0.447,-1.082993 -0.148,-1.52999 0.073,-0.299999 0.225,-0.411999 0.523,-0.486998 0.484,-0.408999 1.867,0.110999 2.352,0.335998 1.385,0.559997 2.543,1.082994 3.699,1.86699 0.523,0.374998 1.084,1.084994 1.755,1.271993 h 0.786 c 1.193,0.259999 2.538,0.072 3.661,0.409998 1.979,0.635997 3.772,1.568991 5.38,2.575986 4.893,3.102984 8.928,7.511979 11.652,12.777979 0.447,0.858 0.637,1.644 1.045,2.539 0.786998,1.832 1.759998,3.7 2.540998,5.493 0.785,1.755 1.533,3.547 2.654,5.005 0.559,0.784 2.805,1.195 3.812,1.606 0.745,0.335 1.905,0.633 2.577,1.044 1.271,0.783 2.537,1.682 3.732,2.543 0.595,0.448 2.465,1.382 2.576,2.13 M 79.064838,19.908386 a 5.82,5.82 0 0 0 -1.528996,0.187999 v 0.075 h 0.072 c 0.301,0.596996 0.824,1.010994 1.197,1.531991 0.300996,0.598997 0.561996,1.192994 0.857,1.790992 l 0.072,-0.074 c 0.527,-0.372999 0.789,-0.970996 0.789,-1.867991 -0.227,-0.263999 -0.262,-0.521997 -0.451,-0.783996 -0.22,-0.373998 -0.705004,-0.559996 -1.007004,-0.859996"
     id="path8"
     inkscape:connector-curvature="0"
     style="fill:#5d87a1" />
  <path
     d="m 120.72884,93.642374 h 0.774 v -3.788 h -1.161 l -0.947,2.585 -1.029,-2.585 h -1.118 v 3.788 h 0.731 v -2.882 h 0.041 l 1.078,2.882 h 0.557 l 1.074,-2.882 z m -6.235,0 h 0.819 v -3.146 h 1.072 v -0.643 h -3.008 v 0.643 h 1.115 z"
     id="path10"
     inkscape:connector-curvature="0"
     style="fill:#f8981d" />
</svg>
