<?xml version="1.0" encoding="UTF-8" standalone="no"?>
<svg
   xmlns:dc="http://purl.org/dc/elements/1.1/"
   xmlns:cc="http://creativecommons.org/ns#"
   xmlns:rdf="http://www.w3.org/1999/02/22-rdf-syntax-ns#"
   xmlns:svg="http://www.w3.org/2000/svg"
   xmlns="http://www.w3.org/2000/svg"
   xmlns:sodipodi="http://sodipodi.sourceforge.net/DTD/sodipodi-0.dtd"
   xmlns:inkscape="http://www.inkscape.org/namespaces/inkscape"
   width="520"
   height="520"
   viewBox="-18.458 6.58 39.7592 39.7592"
   version="1.1"
   id="svg12"
   sodipodi:docname="mysql.svg"
   inkscape:version="0.92.2 (5c3e80d, 2017-08-06)">
  <metadata
     id="metadata18">
    <rdf:RDF>
      <cc:Work
         rdf:about="">
        <dc:format>image/svg+xml</dc:format>
        <dc:type
           rdf:resource="http://purl.org/dc/dcmitype/StillImage" />
        <dc:title></dc:title>
      </cc:Work>
    </rdf:RDF>
  </metadata>
  <defs
     id="defs16" />
  <sodipodi:namedview
     pagecolor="#ffffff"
     bordercolor="#666666"
     borderopacity="1"
     objecttolerance="10"
     gridtolerance="10"
     guidetolerance="10"
     inkscape:pageopacity="0"
     inkscape:pageshadow="2"
     inkscape:window-width="1920"
     inkscape:window-height="1017"
     id="namedview14"
     showgrid="false"
     fit-margin-top="10"
     fit-margin-left="10"
     fit-margin-right="10"
     fit-margin-bottom="10"
     scale-x="0.07646"
     inkscape:zoom="1.0894402"
     inkscape:cx="188.78749"
     inkscape:cy="282.04241"
     inkscape:window-x="-8"
     inkscape:window-y="-8"
     inkscape:window-maximized="1"
     inkscape:current-layer="svg12" />
  <path
     d="M -43.961396,-69.539408 H 147.1896 V 62.950595 H -43.961396 Z"
     id="path2"
     inkscape:connector-curvature="0"
     style="fill:none" />
  <path
     d="m -8.391183,37.011135 h -1.4586212 c -0.05158,-2.46204 -0.1936368,-4.776669 -0.4258888,-6.945575 h -0.01296 l -2.220768,6.945575 h -1.110525 l -2.207521,-6.945575 h -0.01269 c -0.16376,2.082375 -0.266921,4.397568 -0.309763,6.945575 h -1.32953 c 0.08569,-3.098478 0.301025,-6.00332 0.645176,-8.714805 h 1.807845 l 2.104077,6.40356 h 0.01297 l 2.117044,-6.40356 h 1.7297696 c 0.3788187,3.175989 0.6026149,6.081113 0.6713886,8.714805 m 6.3257651,-6.429772 c -0.5938773,3.222778 -1.3774457,5.564465 -2.3498598,7.026186 -0.7576374,1.125181 -1.5877127,1.688336 -2.491635,1.688336 -0.2409896,0 -0.538351,-0.07272 -0.8906749,-0.217032 v -0.777085 c 0.1722159,0.0248 0.3743089,0.0389 0.6065608,0.0389 0.4222251,0 0.7615835,-0.116127 1.0203302,-0.348942 0.3094813,-0.28355 0.4642221,-0.602333 0.4642221,-0.954939 0,-0.241835 -0.1206358,-0.736216 -0.3613435,-1.484834 l -1.6006787,-4.97087 h 1.432972 l 1.148858,3.717723 c 0.2581829,0.844169 0.3658531,1.433536 0.3227287,1.76923 0.6282641,-1.677907 1.0671188,-3.507457 1.3171278,-5.487235 h 1.3813918 z"
     id="path4"
     inkscape:connector-curvature="0"
     style="fill:#5d87a1;stroke-width:1" />
  <path
     d="m 17.350451,37.011135 h -4.14333 V 28.29633 h 1.393793 v 7.642048 h 2.749537 z m -5.227924,0.210549 -1.602088,-0.790615 c 0.142058,-0.11669 0.277913,-0.242963 0.40024,-0.389248 0.680973,-0.799916 1.020613,-1.982879 1.020613,-3.549736 0,-2.883137 -1.131383,-4.32541 -3.3949943,-4.32541 -1.1099614,0 -1.9758328,0.365853 -2.5950774,1.097841 -0.680408,0.80048 -1.0200483,1.979215 -1.0200483,3.537614 0,1.531907 0.3010256,2.655679 0.9033586,3.368501 0.5510347,0.645739 1.3816736,0.969032 2.4924799,0.969032 0.4143335,0 0.7945615,-0.05073 1.140966,-0.15305 l 2.0857585,1.214249 z M 6.932654,35.267272 C 6.5797663,34.699608 6.4033224,33.788076 6.4033224,32.531264 c 0,-2.194274 0.6665969,-3.292678 2.0011985,-3.292678 0.6976027,0 1.208896,0.262692 1.5358526,0.786949 0.3523235,0.568511 0.5296135,1.471869 0.5296135,2.711204 0,2.212315 -0.6671605,3.318612 -2.0009201,3.318612 -0.697882,2.81e-4 -1.2091745,-0.261566 -1.5364129,-0.788079 M 4.3237656,34.595601 c 0,0.739036 -0.2711486,1.345315 -0.8128819,1.820247 -0.542297,0.47296 -1.2694936,0.710004 -2.1807443,0.710004 -0.85234217,0 -1.67875317,-0.272276 -2.4786695,-0.814009 l 0.37459082,-0.748336 c 0.68830012,0.344713 1.31149069,0.516083 1.87098118,0.516083 0.5251036,0 0.9354905,-0.116407 1.2331338,-0.34725 0.2973614,-0.231688 0.4746508,-0.556672 0.4746508,-0.967622 0,-0.517776 -0.3610616,-0.960295 -1.0234306,-1.330939 -0.6107888,-0.335414 -1.83236641,-1.03668 -1.83236641,-1.03668 -0.66208718,-0.482543 -0.99355359,-1.0006 -0.99355359,-1.854069 0,-0.70634 0.24719052,-1.276541 0.74185332,-1.710322 0.49522663,-0.435473 1.13420128,-0.652504 1.91748798,-0.652504 0.8089357,0 1.5443063,0.216749 2.2066754,0.64574 L 3.4855164,29.574561 C 2.9189795,29.333853 2.3597709,29.213499 1.8081725,29.213499 c -0.4467467,0 -0.7917424,0.107387 -1.0316045,0.323011 -0.24183512,0.214777 -0.39093866,0.489589 -0.39093866,0.826693 0,0.515239 0.36867176,0.963395 1.04907976,1.341368 0.6189628,0.335976 1.8709812,1.049362 1.8709812,1.049362 0.6789987,0.481698 1.0180753,0.994964 1.0180753,1.841668"
     id="path6"
     inkscape:connector-curvature="0"
     style="fill:#f8981d;stroke-width:1" />
  <path
     d="m 19.100232,25.377396 c -0.842758,-0.02142 -1.495262,0.06342 -2.042915,0.295106 -0.158123,0.06313 -0.409541,0.06313 -0.431527,0.262976 0.0854,0.08456 0.09527,0.220977 0.169397,0.337667 0.126273,0.210548 0.346406,0.493817 0.547371,0.641511 0.220696,0.169116 0.442236,0.33654 0.674489,0.483952 0.409541,0.253392 0.873763,0.400805 1.272876,0.65335 0.232533,0.146849 0.463658,0.336822 0.696474,0.494945 0.114434,0.08428 0.187717,0.220977 0.336258,0.273684 v -0.03213 c -0.07441,-0.0947 -0.09555,-0.231689 -0.168553,-0.337104 l -0.316246,-0.304972 c -0.305534,-0.410386 -0.685199,-0.76863 -1.09474,-1.06289 -0.337103,-0.232253 -1.074446,-0.547935 -1.211149,-0.936337 l -0.02142,-0.02142 c 0.231688,-0.0217 0.506501,-0.105694 0.726633,-0.170243 0.358242,-0.09442 0.684918,-0.073 1.052462,-0.167425 0.169115,-0.04228 0.336822,-0.09527 0.506501,-0.147413 v -0.09499 c -0.190537,-0.189691 -0.326393,-0.441673 -0.526795,-0.620936 -0.536096,-0.463093 -1.126873,-0.916042 -1.73738,-1.295142 -0.326956,-0.211113 -0.74749,-0.346968 -1.095586,-0.526513 -0.125428,-0.06342 -0.336822,-0.0947 -0.410669,-0.20012 -0.188845,-0.231688 -0.295107,-0.53666 -0.43209,-0.810908 C 15.289219,21.51339 14.993549,20.871315 14.730856,20.259399 14.540882,19.849012 14.425321,19.439188 14.193633,19.059524 13.108475,17.269719 11.930022,16.185693 10.118795,15.121681 9.7295465,14.90014 9.266452,14.805719 8.7717891,14.689592 L 7.9817383,14.647874 C 7.813182,14.574034 7.6443483,14.37363 7.4972179,14.278925 6.8962941,13.900108 5.3491691,13.079055 4.907214,14.163082 c -0.2846778,0.685196 0.4210976,1.358835 0.6634964,1.706366 0.1789806,0.241271 0.4109507,0.5158 0.5360961,0.789766 0.074129,0.178979 0.094987,0.368952 0.1691155,0.558078 0.1685518,0.463376 0.3261112,0.978896 0.5476524,1.411268 0.1155623,0.220414 0.2415534,0.452103 0.3892476,0.651659 0.084558,0.11669 0.2316882,0.16827 0.2638201,0.358525 -0.1468486,0.209703 -0.1584049,0.526231 -0.2426807,0.789487 -0.3788188,1.189727 -0.2308426,2.66357 0.306099,3.537897 0.1679881,0.263256 0.5687918,0.842759 1.1048875,0.620654 0.4746507,-0.18941 0.3695177,-0.789489 0.5059381,-1.31572 0.031283,-0.127117 0.010685,-0.210548 0.073842,-0.293978 v 0.02058 c 0.1468488,0.294542 0.2951061,0.578374 0.4312446,0.873763 0.3266749,0.51552 0.8954664,1.052744 1.3692724,1.409859 0.252264,0.190537 0.452102,0.516367 0.768066,0.632774 v -0.03157 h -0.02086 c -0.06399,-0.09443 -0.15756,-0.136701 -0.241554,-0.209986 -0.189972,-0.189693 -0.400239,-0.42138 -0.547652,-0.631648 C 10.541854,24.450925 10.151198,23.797857 9.8045095,23.123933 9.6348307,22.796975 9.4885457,22.439579 9.3518445,22.113185 9.288142,21.987194 9.288142,21.797221 9.1824474,21.733803 9.0240426,21.96521 8.7931994,22.165611 8.6776369,22.449161 8.4772343,22.902673 8.4563764,23.460473 8.3819659,24.040538 l -0.041434,0.02029 C 8.005128,23.976556 7.8884383,23.629588 7.761038,23.335045 7.4456376,22.58699 7.3926481,21.386271 7.6663334,20.523218 7.7396167,20.302522 8.0567082,19.607458 7.9301535,19.397191 7.8667351,19.195662 7.6559045,19.080945 7.5403423,18.922258 7.4044862,18.722701 7.2556645,18.470155 7.1609598,18.248614 6.908414,17.659247 6.7812956,17.00618 6.5093015,16.417098 6.382183,16.142568 6.1614873,15.858456 5.9827885,15.60563 5.7821048,15.321517 5.5614091,15.121398 5.4027224,14.784578 c -0.052426,-0.115843 -0.125991,-0.305252 -0.041715,-0.431242 0.020576,-0.08456 0.063418,-0.116126 0.1474123,-0.137264 0.1364197,-0.115281 0.526231,0.03128 0.6629326,0.0947 0.390375,0.157841 0.7167679,0.305252 1.0425972,0.526229 0.1474123,0.105693 0.3055352,0.305815 0.4946628,0.358522 h 0.2215412 c 0.3362574,0.07328 0.7153578,0.02029 1.0318856,0.115562 0.5577993,0.179262 1.0631749,0.442235 1.5164039,0.726065 1.379136,0.874604 2.516439,2.11732 3.284223,3.601591 0.125991,0.241835 0.179544,0.463376 0.294542,0.71564 0.221824,0.516366 0.496072,1.042879 0.716205,1.548252 0.221259,0.494663 0.432089,0.999755 0.748053,1.410706 0.15756,0.220977 0.790616,0.336822 1.074447,0.452665 0.209986,0.09443 0.536942,0.178417 0.726351,0.294261 0.358244,0.220696 0.715077,0.474087 1.051899,0.716768 0.167706,0.126273 0.694783,0.389529 0.726069,0.60036 M 8.3597052,16.227126 a 1.6404204,1.6404204 0 0 0 -0.4309611,0.05298 v 0.02114 h 0.020294 c 0.08484,0.168269 0.2322521,0.284958 0.3373853,0.431805 0.084834,0.168834 0.1584037,0.336257 0.2415534,0.504809 L 8.5482678,17.217 C 8.696807,17.111864 8.7706548,16.943316 8.7706548,16.69049 8.7066678,16.61608 8.6968008,16.54336 8.6435363,16.469513 8.5815273,16.364104 8.444824,16.311674 8.359702,16.227117"
     id="path8"
     inkscape:connector-curvature="0"
     style="fill:#5d87a1;stroke-width:1" />
  <path
     d="m 120.72884,34.137799 h 0.774 v -3.788 h -1.161 l -0.947,2.585 -1.029,-2.585 h -1.118 v 3.788 h 0.731 v -2.882 h 0.041 l 1.078,2.882 h 0.557 l 1.074,-2.882 z m -6.235,0 h 0.819 v -3.146 h 1.072 v -0.643 h -3.008 v 0.643 h 1.115 z"
     id="path10"
     inkscape:connector-curvature="0"
     style="fill:#f8981d" />
</svg>
